<svg xmlns="http://www.w3.org/2000/svg" viewBox="0 0 196.238 16.08" enable-background="new 0 0 196.238 16.08"><path d="M0 15.58v-15.08h5.6c.667 0 1.277.07 1.83.21.553.14 1.026.364 1.42.67.393.307.697.71.91 1.21.213.5.32 1.11.32 1.83 0 .68-.124 1.287-.37 1.82-.247.533-.677.953-1.29 1.26v.04c1.08.146 1.863.561 2.35 1.24s.73 1.547.73 2.6c0 .787-.157 1.45-.47 1.99-.313.54-.724.974-1.23 1.3-.507.327-1.087.56-1.74.7s-1.327.21-2.02.21h-6.04zm3.92-9.16h.44c.253 0 .506-.017.76-.05s.48-.1.68-.2c.2-.1.364-.247.49-.44.127-.193.19-.45.19-.77 0-.347-.07-.616-.21-.81-.14-.193-.32-.34-.54-.44-.22-.1-.463-.16-.73-.18s-.533-.03-.8-.03h-.28v2.92zm0 6.16h.5c.293 0 .62-.007.98-.021.36-.013.7-.066 1.02-.16.32-.092.586-.25.8-.469.213-.221.32-.537.32-.951 0-.453-.107-.793-.32-1.02-.213-.227-.483-.387-.81-.48-.327-.092-.677-.139-1.05-.139h-1.44v3.24zm23.96 3h-4.88l-3.7-5.8h-.04v5.8h-3.92v-15.08h5.86c.747 0 1.44.09 2.08.27.64.18 1.193.46 1.66.84.467.38.833.864 1.1 1.45.267.587.4 1.28.4 2.08 0 .52-.07 1.017-.21 1.49-.14.474-.35.9-.63 1.28s-.627.7-1.04.96c-.414.26-.887.438-1.42.529l4.74 6.181zm-8.62-8.32h.38c.32 0 .64-.02.96-.06s.61-.126.87-.26c.26-.133.473-.323.64-.57.167-.247.25-.577.25-.99 0-.413-.083-.743-.25-.99-.167-.247-.38-.437-.64-.57-.26-.133-.55-.22-.87-.26s-.64-.06-.96-.06h-.38v3.76zm15.4-3.44v2.52h4.42v3.32h-4.42v2.601h4.66v3.319h-8.58v-15.08h8.58v3.32h-4.66zm15.079 11.76h-3.92v-11.76h-3.24v-3.32h10.4v3.32h-3.24v11.76zm12.66 0h-3.92v-11.76h-3.24v-3.32h10.4v3.32h-3.24v11.76zm22.82-15.08v10.181c0 .799-.104 1.523-.311 2.17-.206.646-.52 1.203-.939 1.67s-.94.826-1.561 1.08c-.619.252-1.35.379-2.189.379s-1.584-.196-2.23-.59c-.646-.393-1.196-.936-1.649-1.629l2.26-2.381c.227.307.48.598.76.87.28.273.554.41.82.41.293 0 .517-.077.67-.229.153-.154.263-.344.33-.57.066-.227.104-.467.11-.721l.01-.699v-9.941h3.919zm12.06-.5c1.08 0 2.123.19 3.13.57 1.006.38 1.896.913 2.67 1.6.773.687 1.39 1.507 1.85 2.46.46.954.69 1.997.69 3.131 0 1.227-.207 2.346-.62 3.359s-.99 1.891-1.73 2.63c-.739.74-1.619 1.313-2.64 1.72-1.02.406-2.137.61-3.35.61-1.214 0-2.33-.204-3.351-.61-1.02-.406-1.899-.979-2.64-1.72-.74-.739-1.317-1.616-1.73-2.63s-.62-2.133-.62-3.359c0-1.134.23-2.177.69-3.131.46-.953 1.076-1.773 1.85-2.46.773-.687 1.663-1.22 2.671-1.6 1.006-.38 2.05-.57 3.13-.57zm0 3.8c-.587 0-1.138.11-1.65.33-.514.22-.964.514-1.35.88-.388.367-.693.79-.92 1.27-.228.48-.341.98-.341 1.5 0 .653.113 1.254.341 1.8.227.547.532 1.021.92 1.42.386.399.836.714 1.35.94.513.227 1.063.34 1.65.34.586 0 1.136-.113 1.649-.34s.963-.541 1.351-.94c.386-.399.692-.873.92-1.42.227-.546.34-1.146.34-1.8 0-.52-.113-1.02-.34-1.5-.228-.48-.534-.903-.92-1.27-.388-.367-.837-.66-1.351-.88-.513-.22-1.063-.33-1.649-.33zm21.74 2.52v-5.82h3.92v15.08h-3.92v-6.181h-5.66v6.181h-3.92v-15.08h3.92v5.82h5.66zm8.48-5.82h3.92l7.18 9.22h.04v-9.22h3.92v15.08h-3.92l-7.18-9.24h-.04v9.24h-3.92v-15.08zm27.899 3.88c-.359-.306-.763-.55-1.21-.73-.446-.18-.909-.27-1.39-.27-.187 0-.377.027-.57.08-.193.054-.373.134-.54.24-.166.107-.303.237-.409.39-.107.154-.16.337-.16.55 0 .227.06.417.18.57.12.153.267.287.44.4.173.114.359.207.56.28l.56.19 1 .3c.521.16 1.007.35 1.461.57.453.22.846.49 1.18.811.333.319.597.703.79 1.149s.29.977.29 1.59c0 .747-.11 1.483-.33 2.21s-.63 1.344-1.23 1.85c-.6.508-1.273.871-2.02 1.09-.747.221-1.5.33-2.26.33-.96 0-1.891-.149-2.79-.449-.9-.301-1.737-.723-2.511-1.27l1.681-3.16c.493.426 1.026.793 1.6 1.1s1.2.46 1.88.46c.227 0 .453-.03.681-.09.227-.06.43-.15.609-.271.181-.119.327-.276.44-.47s.17-.423.17-.69c0-.279-.084-.513-.25-.699-.167-.188-.374-.347-.62-.48-.247-.133-.507-.24-.78-.32l-.729-.22c-.613-.173-1.17-.356-1.67-.55s-.931-.443-1.29-.75c-.36-.307-.637-.693-.83-1.16-.193-.466-.29-1.066-.29-1.8 0-.76.13-1.453.39-2.08.26-.626.62-1.16 1.08-1.6s1.007-.78 1.64-1.02c.634-.24 1.33-.36 2.091-.36.373 0 .77.03 1.189.09s.833.144 1.24.25c.406.107.807.237 1.2.39.393.153.756.323 1.09.51l-1.563 3.039zm13.621-4.38c1.08 0 2.123.19 3.13.57 1.006.38 1.896.913 2.67 1.6.773.687 1.39 1.507 1.85 2.46.46.954.69 1.997.69 3.131 0 1.227-.207 2.346-.62 3.359s-.99 1.891-1.73 2.63c-.739.74-1.619 1.313-2.64 1.72-1.02.406-2.137.61-3.35.61-1.214 0-2.33-.204-3.351-.61-1.02-.406-1.899-.979-2.64-1.72-.74-.739-1.317-1.616-1.73-2.63s-.62-2.133-.62-3.359c0-1.134.23-2.177.69-3.131.46-.953 1.076-1.773 1.85-2.46.773-.687 1.663-1.22 2.671-1.6 1.006-.38 2.05-.57 3.13-.57zm0 3.8c-.587 0-1.138.11-1.65.33-.514.22-.964.514-1.35.88-.388.367-.693.79-.92 1.27-.228.48-.341.98-.341 1.5 0 .653.113 1.254.341 1.8.227.547.532 1.021.92 1.42.386.399.836.714 1.35.94.513.227 1.063.34 1.65.34.586 0 1.136-.113 1.649-.34s.963-.541 1.351-.94c.386-.399.692-.873.92-1.42.227-.546.34-1.146.34-1.8 0-.52-.113-1.02-.34-1.5-.228-.48-.534-.903-.92-1.27-.388-.367-.837-.66-1.351-.88-.513-.22-1.063-.33-1.649-.33zm12.159-3.3h3.92l7.18 9.22h.04v-9.22h3.92v15.08h-3.92l-7.18-9.24h-.04v9.24h-3.92v-15.08z"/></svg>