<svg xmlns="http://www.w3.org/2000/svg" xmlns:xlink="http://www.w3.org/1999/xlink" width="18" height="18" viewBox="0 0 18 18"><defs><path id="a" d="M0 0h18v18h-18z"/></defs><clipPath id="b"><use xlink:href="#a" overflow="visible"/></clipPath><path clip-path="url(#b)" fill-rule="evenodd" clip-rule="evenodd" d="M15.896 7.602h-1.564c.114.442.181.905.181 1.383 0 3.054-2.475 5.529-5.528 5.529-3.054 0-5.529-2.475-5.529-5.529 0-.478.067-.94.182-1.383h-1.565v7.603c0 .381.31.69.692.69h12.439c.382 0 .692-.31.692-.69v-7.603zm0-4.838c0-.382-.31-.691-.692-.691h-2.073c-.382 0-.691.31-.691.691v2.074c0 .381.31.691.691.691h2.073c.382 0 .692-.31.692-.691v-2.074zm-6.911 2.765c-1.909 0-3.456 1.547-3.456 3.456 0 1.908 1.547 3.456 3.456 3.456 1.908 0 3.456-1.547 3.456-3.456-.001-1.909-1.548-3.456-3.456-3.456m6.911 12.44h-13.823c-1.145 0-2.073-.928-2.073-2.074v-13.822c0-1.145.928-2.073 2.073-2.073h13.823c1.145 0 2.073.928 2.073 2.073v13.822c0 1.146-.927 2.074-2.073 2.074"/></svg>