<svg xmlns="http://www.w3.org/2000/svg" width="22.149" height="18" viewBox="0 0 22.149 18"><path d="M22.149 2.13c-.814.361-1.689.606-2.609.716.938-.562 1.659-1.453 1.998-2.514-.878.521-1.851.899-2.886 1.103-.829-.883-2.01-1.435-3.318-1.435-2.509 0-4.543 2.034-4.543 4.544 0 .356.04.703.118 1.036-3.777-.19-7.125-1.999-9.367-4.748-.391.671-.615 1.451-.615 2.284 0 1.577.802 2.967 2.021 3.782-.744-.023-1.445-.228-2.057-.568v.058c0 2.201 1.566 4.039 3.645 4.456-.381.104-.783.159-1.197.159-.293 0-.578-.028-.854-.081.578 1.806 2.256 3.119 4.245 3.155-1.555 1.219-3.515 1.945-5.644 1.945-.369-.001-.73-.022-1.086-.064 2.011 1.29 4.4 2.042 6.966 2.042 8.358 0 12.929-6.925 12.929-12.929l-.013-.588c.888-.641 1.659-1.441 2.267-2.353z"/></svg>